<svg xmlns="http://www.w3.org/2000/svg" width="255.11" height="360.088" viewBox="-52.5 0 255.11 360.088" preserveAspectRatio="xMinYMin meet"><path d="m202.61 70.766-23.241 260.36-104.47 28.962-104.182-28.922-23.217-260.4Z" style="fill:#e44d26"/><path d="m75.055 337.95 84.417-23.403 19.86-222.49H75.055Z" style="fill:#f16529"/><path d="M29.875 155.932h45.18v-31.937H-5.028l.764 8.568 7.85 88.01h71.469v-31.937H32.794Zm7.198 80.61H5.013l4.474 50.146 65.421 18.16.147-.04V271.58l-.14.037-35.568-9.604z" style="fill:#ebebeb"/><path d="M-28.765 0h16.23v16.035H2.312V0h16.231v48.558H2.313v-16.26h-14.847v16.26h-16.23V0Zm68.65 16.103H25.599V0h44.814v16.103H56.118v32.455h-16.23V16.103h-.001ZM77.525 0h16.923l10.41 17.062L115.258 0h16.93v48.558h-16.164V24.49l-11.166 17.265h-.28L93.405 24.49v24.068h-15.88zm62.74 0H156.5v32.508h22.824v16.05h-39.06V0Z"/><path d="M74.945 220.573h39.327l-3.708 41.42-35.62 9.614v33.226l65.473-18.145.48-5.396 7.506-84.08.779-8.576H74.945Zm0-64.719v.078h77.143l.64-7.178 1.456-16.191.763-8.568H74.945v31.86z" style="fill:#fff"/></svg>