<svg xmlns:dc="http://purl.org/dc/elements/1.1/" xmlns:cc="http://creativecommons.org/ns#" xmlns:rdf="http://www.w3.org/1999/02/22-rdf-syntax-ns#" xmlns:svg="http://www.w3.org/2000/svg" xmlns="http://www.w3.org/2000/svg" xmlns:sodipodi="http://sodipodi.sourceforge.net/DTD/sodipodi-0.dtd" xmlns:inkscape="http://www.inkscape.org/namespaces/inkscape" id="svg2" version="1.1" inkscape:version="0.91 r13725" xml:space="preserve" width="800" height="283" viewBox="0 0 799.99999 283" sodipodi:docname="Logo Conseil Général Saône Loire.svg"><metadata id="metadata8"><rdf:RDF><cc:Work rdf:about=""><dc:format>image/svg+xml</dc:format><dc:type rdf:resource="http://purl.org/dc/dcmitype/StillImage"/><dc:title/></cc:Work></rdf:RDF></metadata><defs id="defs6"/><sodipodi:namedview pagecolor="#ffffff" bordercolor="#666666" borderopacity="1" objecttolerance="10" gridtolerance="10" guidetolerance="10" inkscape:pageopacity="0" inkscape:pageshadow="2" inkscape:window-width="1393" inkscape:window-height="790" id="namedview4" showgrid="false" inkscape:zoom="0.54652929" inkscape:cx="984.18664" inkscape:cy="92.996705" inkscape:window-x="0" inkscape:window-y="1" inkscape:window-maximized="0" inkscape:current-layer="g10"/><g id="g10" inkscape:groupmode="layer" inkscape:label="Logo Saône Loire" transform="matrix(1.25,0,0,-1.25,0,283)"><g id="g5624" transform="matrix(4.2556408,0,0,4.2556408,-2611.0415,-412.92568)"><g id="g5617"><path d="m 673.241,128.771 54.575,0 0,2.844 -54.575,0 0,-2.844 z" style="fill:#58ab27;fill-opacity:1;fill-rule:nonzero;stroke:none" id="path536" inkscape:connector-curvature="0"/><path d="m 670.92,125.029 54.576,0 0,2.844 -54.576,0 0,-2.844 z" style="fill:#58ab27;fill-opacity:1;fill-rule:nonzero;stroke:none" id="path538" inkscape:connector-curvature="0"/><path d="m 668.823,121.213 54.575,0 0,2.843 -54.575,0 0,-2.843 z" style="fill:#58ab27;fill-opacity:1;fill-rule:nonzero;stroke:none" id="path540" inkscape:connector-curvature="0"/><path d="m 666.728,117.544 54.574,0 0,2.844 -54.574,0 0,-2.844 z" style="fill:#58ab27;fill-opacity:1;fill-rule:nonzero;stroke:none" id="path542" inkscape:connector-curvature="0"/><path d="m 664.482,113.873 54.575,0 0,2.847 -54.575,0 0,-2.847 z" style="fill:#58ab27;fill-opacity:1;fill-rule:nonzero;stroke:none" id="path544" inkscape:connector-curvature="0"/></g><g id="g5613"><path d="m 694.3506,113.7981 c 1.87,5.142 11.831,18.268 11.831,18.268 6.439,6.438 12.427,13.626 20.512,18.117 -0.298,-0.449 -1.198,-0.598 -1.198,-1.047 -0.149,-0.3 0.301,-0.151 0.601,-0.151 -0.3,-0.449 -0.75,-0.598 -1.049,-1.047 0,-0.15 0,-0.3 0.15,-0.3 0.149,0.15 0.298,0.3 0.599,0.3 l 0,-0.3 c -0.151,0 -0.301,0 -0.301,-0.148 0,-0.151 0,-0.301 0.15,-0.301 0.151,0 0.151,0.15 0.3,0.15 -0.149,-0.3 -0.45,-0.599 -0.599,-0.897 0,-0.301 0.45,-0.301 0.75,-0.151 l 0,-0.3 c -0.151,-0.149 -0.451,-0.149 -0.601,-0.299 0.15,-0.299 0.45,-0.299 0.749,-0.15 -1.197,-0.898 -2.398,-1.796 -3.297,-3.143 -0.149,-0.15 0.45,0.3 0.749,0.15 -3.144,-3.446 -6.585,-6.44 -9.88,-10.036 0,0 -10.256,-11.826 -10.931,-18.113 -0.161,-1.534 -0.598,-2.697 -0.897,-4.195 -0.151,-1.047 -0.151,-2.245 0.299,-3.293 0.151,-0.452 0.298,-0.901 0.449,-1.349 0.449,-0.75 -0.598,-1.498 -1.198,-1.648 -2.545,-0.898 -5.242,-1.796 -7.938,-1.347 -0.597,0 -1.347,0.6 -1.347,1.197 -0.148,3.446 0.9,6.74 2.097,10.033" style="fill:#0095d8;fill-opacity:1;fill-rule:nonzero;stroke:none" id="path550" inkscape:connector-curvature="0"/><path d="m 684.0219,113.9472 c -1.048,-1.497 -2.247,-2.844 -2.995,-4.49 -0.15,-0.151 -0.449,-0.151 -0.598,-0.3 -1.049,-1.946 -2.545,-3.445 -3.893,-5.391 -0.451,-0.598 -0.899,-1.198 -1.349,-1.946 -0.598,-0.749 -1.347,-1.348 -1.647,-2.245 0.15,0 0.449,0 0.449,-0.149 0,-0.152 -0.299,-0.301 -0.299,-0.601 0.449,0.3 0.899,0.75 1.197,1.198 0.15,0.148 0.3,-0.15 0.3,-0.15 -0.3,-0.447 -0.748,-1.048 -1.198,-1.347 0.45,-0.3 0.898,0.748 1.198,0.149 0,-0.149 -0.449,-0.298 -0.3,-0.449 0.3,-0.15 0.599,0 0.75,0.3 0.448,-0.3 -0.151,-0.749 0,-1.048 0.149,-0.149 0.448,0.15 0.598,-0.149 0,0 -0.15,-0.149 -0.15,-0.299 4.642,4.34 8.537,9.13 12.727,14.223 l 0.6,0 c -0.151,0.149 -0.301,0.3 -0.301,0.3 0.748,0.897 1.595,1.781 2.245,2.544 4.791,5.617 10.783,17.817 10.783,17.817 -0.302,1.497 0.747,2.697 0.447,4.194 -0.298,1.198 -0.597,2.396 -1.346,3.294 -2.694,2.847 -6.59,2.847 -10.184,3.447 -3.591,0.598 -7.065,-0.041 -10.478,0.448 -1.048,0.15 -2.097,-0.15 -2.694,-0.898 -0.15,-0.449 0.597,-0.15 0.597,-0.449 -0.298,-0.9 0.45,-1.35 0.6,-2.098 0.15,-0.45 0.898,-0.151 1.198,-0.6 0.15,-0.149 -0.3,0 -0.3,-0.299 0.151,-0.599 0.748,-0.749 0.898,-0.749 3.444,-0.598 6.738,-0.149 9.882,-1.796 1.495,-0.899 3.142,-2.547 2.395,-4.494 0,0 -0.75,-5.539 -9.132,-17.967" style="fill:#0095d8;fill-opacity:1;fill-rule:nonzero;stroke:none" id="path552" inkscape:connector-curvature="0"/></g><g id="g5600"><path d="m 733.6349,128.4874 c 0.292,0.587 0.052,1.124 -0.958,1.143 -0.719,0.007 -1.369,-0.239 -1.693,-0.833 -0.267,-0.497 -0.148,-0.598 0.122,-0.724 0.085,-0.18 1.351,-0.399 1.604,-0.447 0.365,-0.07 1.136,-0.249 1.376,-0.717 0.429,-0.871 -0.749,-2.588 -1.924,-3.174 -0.795,-0.396 -1.685,-0.495 -2.489,-0.505 -0.372,-0.011 -1.182,0.118 -1.541,0.505 -0.428,0.468 -0.415,1.182 -0.146,1.864 l 1.447,0 c -0.09,-0.187 -0.168,-0.485 -0.04,-0.744 0.169,-0.336 0.655,-0.445 1.162,-0.425 0.497,0.013 1.029,0.158 1.302,0.337 0.454,0.296 0.787,0.863 0.595,1.222 -0.25,0.496 -1.675,0.496 -2.459,0.812 -0.659,0.267 -1.039,0.835 -0.378,2.006 0.645,1.149 1.876,2.001 3.635,2.001 0.386,0 1.719,-0.028 2.011,-0.92 0.155,-0.487 -0.06,-1.162 -0.231,-1.401 l -1.395,0 z" style="fill:#000000;fill-opacity:1;fill-rule:nonzero;stroke:none" id="path554" inkscape:connector-curvature="0"/><path d="m 737.0988,126.2172 1.849,0 0.338,2.807 -2.187,-2.807 z m 2.976,-2.688 -1.516,0 0.174,1.447 -2.676,0 -1.173,-1.447 -1.515,0 5.854,7.233 1.715,0 -0.863,-7.233 z" style="fill:#000000;fill-opacity:1;fill-rule:nonzero;stroke:none" id="path556" inkscape:connector-curvature="0"/><path d="m 745.6329,125.0865 c 0.679,0.437 1.278,1.222 1.65,2.005 0.35,0.785 0.477,1.568 0.202,2.003 -0.214,0.348 -0.628,0.486 -1.102,0.486 -0.477,0 -1.015,-0.138 -1.55,-0.486 -0.679,-0.435 -1.276,-1.218 -1.649,-2.003 -0.353,-0.783 -0.475,-1.568 -0.203,-2.005 0.215,-0.345 0.628,-0.485 1.102,-0.485 0.475,0 1.015,0.14 1.55,0.485 m 0.67,-0.883 c -0.889,-0.628 -1.901,-0.903 -2.822,-0.903 -0.92,0 -1.675,0.275 -1.987,0.903 -0.349,0.704 -0.244,1.795 0.262,2.888 0.504,1.09 1.405,2.181 2.404,2.886 0.892,0.625 1.902,0.903 2.822,0.903 0.92,0 1.673,-0.278 1.992,-0.903 0.348,-0.705 0.238,-1.796 -0.265,-2.886 -0.501,-1.093 -1.403,-2.184 -2.406,-2.888 m 2.195,8.649 0.348,-1.457 -0.77,0 -0.379,0.94 -1.246,-0.94 -0.755,0 1.746,1.457 1.056,0 z" style="fill:#000000;fill-opacity:1;fill-rule:nonzero;stroke:none" id="path558" inkscape:connector-curvature="0"/><path d="m 752.9273,130.8302 0.624,-4.97 2.294,4.97 1.487,0 -3.342,-7.235 -1.464,0 -0.593,5.045 -2.33,-5.045 -1.485,0 3.343,7.235 1.466,0 z" style="fill:#000000;fill-opacity:1;fill-rule:nonzero;stroke:none" id="path560" inkscape:connector-curvature="0"/><path d="m 763.937,130.8603 -0.575,-1.24 -3.743,0 -0.758,-1.648 3.453,0 -0.57,-1.24 -3.456,0 -0.864,-1.865 3.916,0 -0.575,-1.239 -5.397,0 3.342,7.232 5.227,0 z" style="fill:#000000;fill-opacity:1;fill-rule:nonzero;stroke:none" id="path562" inkscape:connector-curvature="0"/><path d="m 725.8304,117.8763 c -0.925,-0.395 -1.193,-0.594 -1.442,-1.128 -0.191,-0.42 -0.048,-1.093 0.527,-1.093 0.616,0 1.258,0.435 1.491,0.577 l -0.576,1.644 z m 2.177,2.483 c 0.176,0.375 0.035,0.486 -0.351,0.486 -0.177,0 -0.582,0 -0.825,-0.526 -0.037,-0.081 -0.096,-0.38 0.133,-0.917 0.632,0.301 0.814,0.459 1.043,0.957 m 1.699,-1.917 c -0.34,-0.744 -0.992,-1.577 -1.71,-2.124 l 0.53,-1.595 -1.596,0 -0.215,0.604 c -0.634,-0.387 -1.214,-0.764 -2.227,-0.805 -1.234,-0.037 -2.091,0.638 -1.413,2.105 0.55,1.19 1.157,1.45 2.507,2.083 -0.172,0.418 -0.4,0.875 -0.105,1.507 0.55,1.192 1.771,1.739 2.752,1.739 0.77,0 1.494,-0.428 0.975,-1.558 -0.37,-0.804 -1.072,-1.291 -1.978,-1.776 l 0.45,-1.34 c 0.338,0.22 0.677,0.758 0.874,1.16 l 1.156,0 z" style="fill:#000000;fill-opacity:1;fill-rule:nonzero;stroke:none" id="path564" inkscape:connector-curvature="0"/><path d="m 734.4132,122.1069 -2.766,-5.991 3.456,0 -0.576,-1.241 -4.938,0 3.342,7.232 1.482,0 z" style="fill:#000000;fill-opacity:1;fill-rule:nonzero;stroke:none" id="path566" inkscape:connector-curvature="0"/><path d="m 740.178,116.5514 c 0.675,0.435 1.275,1.218 1.648,2.002 0.352,0.785 0.475,1.569 0.203,2.004 -0.216,0.349 -0.629,0.487 -1.104,0.487 -0.472,0 -1.015,-0.138 -1.552,-0.487 -0.677,-0.435 -1.275,-1.219 -1.646,-2.004 -0.352,-0.784 -0.479,-1.567 -0.203,-2.002 0.216,-0.348 0.626,-0.486 1.103,-0.486 0.473,0 1.012,0.138 1.551,0.486 m 0.67,-0.886 c -0.891,-0.621 -1.903,-0.899 -2.826,-0.899 -0.918,0 -1.673,0.278 -1.985,0.899 -0.348,0.707 -0.242,1.798 0.262,2.888 0.507,1.093 1.408,2.183 2.402,2.889 0.894,0.624 1.9,0.903 2.822,0.903 0.921,0 1.675,-0.279 1.991,-0.903 0.351,-0.706 0.239,-1.796 -0.262,-2.889 -0.504,-1.09 -1.405,-2.181 -2.404,-2.888" style="fill:#000000;fill-opacity:1;fill-rule:nonzero;stroke:none" id="path568" inkscape:connector-curvature="0"/><path d="m 743.787,114.8772 -1.487,0 3.34,7.234 1.484,0 -3.337,-7.234 z" style="fill:#000000;fill-opacity:1;fill-rule:nonzero;stroke:none" id="path570" inkscape:connector-curvature="0"/><path d="m 748.3197,118.9183 2.03,0 c 0.345,0 1.137,0.364 1.381,1.08 0.235,0.518 0.135,0.815 -0.527,0.815 l -2.011,0 -0.873,-1.895 z m -0.041,3.136 4.012,0 c 0.708,-0.031 1.285,-0.367 1.134,-1.153 -0.051,-0.316 -0.139,-0.834 -0.607,-1.456 -0.467,-0.628 -0.889,-0.855 -1.507,-1.143 0.171,-0.167 0.564,-0.347 0.341,-1.002 -0.1,-0.3 -0.518,-1.251 -0.678,-1.618 -0.189,-0.406 -0.11,-0.495 10e-4,-0.595 l -0.123,-0.266 -1.595,0 c -0.015,0.218 0.026,0.435 0.116,0.673 0.144,0.358 0.41,0.932 0.672,1.459 0.202,0.485 -0.042,0.724 -0.556,0.724 l -1.744,0 -1.321,-2.856 -1.483,0 3.338,7.233 z" style="fill:#000000;fill-opacity:1;fill-rule:nonzero;stroke:none" id="path572" inkscape:connector-curvature="0"/><path d="m 760.4342,122.1108 -0.575,-1.239 -3.742,0 -0.76,-1.645 3.455,0 -0.576,-1.244 -3.451,0 -0.864,-1.865 3.912,0 -0.572,-1.241 -5.396,0 3.338,7.234 5.231,0 z" style="fill:#000000;fill-opacity:1;fill-rule:nonzero;stroke:none" id="path574" inkscape:connector-curvature="0"/></g><g id="g5584"><path d="m 628.145,125.884 c -0.33,-0.759 -1.125,-1.619 -1.874,-2.059 -0.588,-0.348 -1.575,-0.697 -2.51,-0.728 -1.682,-0.048 -2.388,1.013 -2.121,2.593 0.065,0.346 0.203,0.821 0.412,1.309 0.211,0.504 0.479,1.016 0.779,1.436 1.009,1.395 2.364,2.489 4.301,2.489 0.532,0 1.255,-0.063 1.761,-0.584 0.767,-0.726 0.411,-1.689 0.262,-2.068 l -1.465,0 c 0.136,0.418 0.234,1.474 -1.309,1.362 -0.718,-0.052 -1.474,-0.554 -1.988,-1.187 -0.215,-0.27 -0.525,-0.757 -0.783,-1.293 -0.245,-0.534 -0.435,-1.108 -0.426,-1.567 0.016,-0.543 0.216,-0.87 0.521,-1.045 0.16,-0.083 0.338,-0.123 0.553,-0.123 0.201,-0.01 0.438,0.021 0.68,0.08 1.192,0.3 1.542,1.058 1.743,1.385 l 1.464,0 z" style="fill:#000000;fill-opacity:1;fill-rule:nonzero;stroke:none" id="path576" inkscape:connector-curvature="0"/><path d="m 633.5013,124.9409 c 0.683,0.451 1.271,1.26 1.623,2.069 0.332,0.81 0.428,1.618 0.127,2.07 -0.238,0.36 -0.668,0.502 -1.16,0.502 -0.492,0 -1.044,-0.142 -1.586,-0.502 -0.682,-0.452 -1.27,-1.26 -1.622,-2.07 -0.333,-0.809 -0.429,-1.618 -0.127,-2.069 0.237,-0.357 0.668,-0.501 1.16,-0.501 0.492,0 1.044,0.144 1.585,0.501 m 0.731,-0.911 c -0.898,-0.646 -1.932,-0.933 -2.884,-0.933 -0.953,0 -1.743,0.287 -2.095,0.933 -0.39,0.726 -0.322,1.854 0.155,2.98 0.476,1.127 1.362,2.255 2.366,2.985 0.898,0.642 1.931,0.929 2.884,0.929 0.953,0 1.744,-0.287 2.096,-0.929 0.388,-0.73 0.32,-1.858 -0.155,-2.985 -0.478,-1.126 -1.363,-2.254 -2.367,-2.98" style="fill:#000000;fill-opacity:1;fill-rule:nonzero;stroke:none" id="path578" inkscape:connector-curvature="0"/><path d="m 640.7794,130.8017 0.852,-5.135 2.171,5.135 1.537,0 -3.159,-7.469 -1.516,0 -0.822,5.203 -2.201,-5.203 -1.536,0 3.158,7.469 1.516,0 z" style="fill:#000000;fill-opacity:1;fill-rule:nonzero;stroke:none" id="path580" inkscape:connector-curvature="0"/><path d="m 649.7923,128.5264 c 0.277,0.604 0.009,1.158 -1.037,1.178 -0.744,0.01 -1.406,-0.245 -1.717,-0.859 -0.257,-0.514 -0.126,-0.616 0.155,-0.749 0.097,-0.183 1.414,-0.407 1.68,-0.459 0.38,-0.074 1.182,-0.259 1.451,-0.738 0.479,-0.902 -0.67,-2.674 -1.858,-3.278 -0.809,-0.412 -1.723,-0.514 -2.557,-0.524 -0.383,-0.01 -1.229,0.125 -1.613,0.524 -0.461,0.479 -0.478,1.218 -0.229,1.926 l 1.493,0 c -0.081,-0.194 -0.149,-0.503 -0.006,-0.769 0.191,-0.349 0.697,-0.464 1.217,-0.441 0.517,0.01 1.064,0.162 1.336,0.346 0.458,0.31 0.776,0.894 0.564,1.263 -0.276,0.511 -1.75,0.511 -2.575,0.839 -0.692,0.276 -1.112,0.86 -0.478,2.07 0.626,1.187 1.859,2.068 3.682,2.068 0.4,0 1.781,-0.032 2.118,-0.953 0.176,-0.501 -0.015,-1.197 -0.18,-1.444 l -1.446,0 z" style="fill:#000000;fill-opacity:1;fill-rule:nonzero;stroke:none" id="path582" inkscape:connector-curvature="0"/><path d="m 659.0096,130.8017 -0.542,-1.283 -3.871,0 -0.719,-1.698 3.575,0 -0.542,-1.28 -3.575,0 -0.814,-1.927 4.046,0 -0.541,-1.281 -5.584,0 3.158,7.469 5.409,0 z" style="fill:#000000;fill-opacity:1;fill-rule:nonzero;stroke:none" id="path584" inkscape:connector-curvature="0"/><path d="m 658.6464,123.3319 -1.537,0 3.158,7.469 1.536,0 -3.157,-7.469 z" style="fill:#000000;fill-opacity:1;fill-rule:nonzero;stroke:none" id="path586" inkscape:connector-curvature="0"/><path d="m 664.824,130.8017 -2.616,-6.188 3.575,0 -0.541,-1.281 -5.113,0 3.158,7.469 1.537,0 z" style="fill:#000000;fill-opacity:1;fill-rule:nonzero;stroke:none" id="path588" inkscape:connector-curvature="0"/><path d="m 617.9659,118.7186 2.991,0 -1.706,-4.037 -0.923,0 0.211,0.933 c -0.551,-0.452 -1.5,-1.22 -2.942,-1.138 -1.32,0.073 -1.559,0.626 -1.768,0.953 -1.016,1.689 0.836,5.513 3.809,6.607 0.362,0.134 0.891,0.268 1.537,0.268 0.706,0 1.659,-0.071 2.101,-0.82 0.491,-0.852 0.179,-1.517 0.14,-1.681 l -1.403,0 c 0.109,0.894 -0.505,1.232 -1.303,1.232 -0.513,0 -0.939,-0.134 -1.491,-0.424 -1.276,-0.788 -2.133,-2.695 -2.081,-3.542 0.035,-0.614 0.32,-1.249 1.142,-1.342 0.502,-0.051 1.317,0.135 1.991,0.685 0.614,0.483 0.761,0.831 0.858,1.036 l -1.7,0 0.537,1.27 z" style="fill:#000000;fill-opacity:1;fill-rule:nonzero;stroke:none" id="path590" inkscape:connector-curvature="0"/><path d="m 629.3217,122.1798 -0.541,-1.278 -3.872,0 -0.721,-1.702 3.576,0 -0.542,-1.283 -3.575,0 -0.815,-1.926 4.047,0 -0.54,-1.278 -5.584,0 3.157,7.467 5.41,0 z" style="fill:#000000;fill-opacity:1;fill-rule:nonzero;stroke:none" id="path592" inkscape:connector-curvature="0"/><path d="m 632.147,122.1798 0.851,-5.13 2.171,5.13 1.538,0 -3.159,-7.467 -1.517,0 -0.821,5.206 -2.2,-5.206 -1.537,0 3.157,7.467 1.517,0 z" style="fill:#000000;fill-opacity:1;fill-rule:nonzero;stroke:none" id="path594" inkscape:connector-curvature="0"/><path d="m 643.5466,122.1798 -0.542,-1.278 -3.872,0 -0.72,-1.702 3.576,0 -0.543,-1.283 -3.574,0 -0.813,-1.926 4.045,0 -0.542,-1.278 -5.582,0 3.157,7.467 5.41,0 z" style="fill:#000000;fill-opacity:1;fill-rule:nonzero;stroke:none" id="path596" inkscape:connector-curvature="0"/><path d="m 645.1453,118.9426 2.101,0 c 0.357,0 1.164,0.379 1.384,1.119 0.225,0.531 0.109,0.84 -0.576,0.84 l -2.08,0 -0.829,-1.959 z m -0.166,3.237 4.148,0 c 0.735,-0.03 1.345,-0.378 1.219,-1.188 -0.038,-0.327 -0.109,-0.859 -0.567,-1.505 -0.457,-0.646 -0.883,-0.88 -1.51,-1.18 0.181,-0.171 0.595,-0.356 0.392,-1.033 -0.09,-0.31 -0.484,-1.292 -0.636,-1.672 -0.177,-0.419 -0.093,-0.509 0.029,-0.613 l -0.118,-0.275 -1.649,0 c -0.027,0.225 0.006,0.449 0.09,0.694 0.135,0.371 0.385,0.963 0.636,1.506 0.192,0.506 -0.072,0.75 -0.606,0.75 l -1.803,0 -1.248,-2.95 -1.535,0 3.158,7.466 z" style="fill:#000000;fill-opacity:1;fill-rule:nonzero;stroke:none" id="path598" inkscape:connector-curvature="0"/><path d="m 652.4058,117.4884 1.916,0 0.233,2.899 -2.149,-2.899 z m 3.19,-2.775 -1.567,0 0.12,1.495 -2.766,0 -1.156,-1.495 -1.565,0 5.759,7.466 1.773,0 -0.598,-7.466 z" style="fill:#000000;fill-opacity:1;fill-rule:nonzero;stroke:none" id="path600" inkscape:connector-curvature="0"/><path d="m 661.3026,122.1798 -2.617,-6.189 3.577,0 -0.543,-1.278 -5.112,0 3.158,7.467 1.537,0 z" style="fill:#000000;fill-opacity:1;fill-rule:nonzero;stroke:none" id="path602" inkscape:connector-curvature="0"/></g></g></g></svg>
