<svg xmlns="http://www.w3.org/2000/svg" xmlns:xlink="http://www.w3.org/1999/xlink" id="Calque_1" data-name="Calque 1"
     width="672.14" height="173.32" viewBox="0 0 672.14 173.32">
    <defs>
        <style>
            .cls-1{isolation:isolate;opacity:0.33;fill:url(#Dégradé_sans_nom_12);}.cls-2{fill:#4fa8aa;}.cls-3{fill:#143659;}.cls-4{fill:#f05100;}
        </style>
        <linearGradient id="Dégradé_sans_nom_12" x1="86.77" y1="-19.47" x2="86.77" y2="-22.32"
                        gradientTransform="matrix(1, 0, 0, -1, -23.34, 151)" gradientUnits="userSpaceOnUse">
            <stop offset="0" stop-color="#feffff"/>
            <stop offset="1" stop-color="#e85270" stop-opacity="0.4"/>
        </linearGradient>
    </defs>
    <path id="Ellipse_16_copie" data-name="Ellipse 16 copie" class="cls-1"
          d="M63.42,170.47c1.12,0,2,.83,2,1.43s-1,1.42-2.12,1.42a1.83,1.83,0,0,1-1.93-1.42C61.4,171.31,62.29,170.47,63.42,170.47Z"/>
    <g id="Calque_2" data-name="Calque 2">
        <g id="Calque_1-2" data-name="Calque 1-2">
            <path class="cls-2"
                  d="M158.52,116.31h0c.79-.29,1.57-.55,2.33-.79h.09a36.43,36.43,0,0,1,6.53-1.36h.08a30.59,30.59,0,0,1,5.82-.08h0a26.37,26.37,0,0,1,3.85.61h0S178.08,18.86,70.92,3c0,0-10.64,21.31.93,53.08C110.36,54.71,139.68,86.64,158.52,116.31Z"/>
            <path class="cls-3"
                  d="M54.48,58.9C101.6,45.37,137,82.32,158.53,116.31A34.67,34.67,0,0,1,172.34,114C157.26,78.42,116.73,14.92,20.72,20.63c0,0-8,30.85-2.23,58.8,2.22-2,4.36-3.77,5.32-4.49A91.52,91.52,0,0,1,54.48,58.9Z"/>
            <path class="cls-4"
                  d="M148.14,121.58l.13-.09a56.6,56.6,0,0,1,6.27-3.5C130.12,79.72,103.09,60.3,74.18,60.3h-.06C42.47,60.3,18.77,84,15.87,88.11c-3.32,23.31,1.55,41.87,14.51,55.2C39.26,152.44,57,164,91.27,167.44a201.79,201.79,0,0,0,36.29.23C126.06,160.35,124.38,139.39,148.14,121.58Z"/>
            <path class="cls-3"
                  d="M183.13,121.58c-9.14-5.41-20.38-4.18-32.5,3.51-23.41,17.53-20.06,37.51-18.73,42.63,28.66,4,51.52,1.67,61.3-6.27a12.47,12.47,0,0,0,5-9.06C198.9,141.88,193.92,127.92,183.13,121.58Z"/>
            <path class="cls-3"
                  d="M236.86,31h13.3a18.71,18.71,0,0,1,16,8.89l29.4,47.57V31h24v94.86H295.9l-35-56.59v56.61h-24Z"/>
            <path class="cls-3"
                  d="M344.49,123.5a33.43,33.43,0,0,1-14.05-12.18,32.76,32.76,0,0,1-4.95-18,32.86,32.86,0,0,1,4.95-18,33.53,33.53,0,0,1,14.05-12.22,52.95,52.95,0,0,1,42.31,0,33.6,33.6,0,0,1,14.05,12.22,32.53,32.53,0,0,1,5,18,33,33,0,0,1-4.95,18,33.5,33.5,0,0,1-14.05,12.18,53,53,0,0,1-42.35,0ZM377.14,105c2.84-2.84,4.27-6.76,4.27-11.73s-1.42-8.9-4.27-11.75-6.68-4.27-11.48-4.27-8.61,1.42-11.46,4.27-4.28,6.76-4.28,11.75,1.43,8.89,4.28,11.73,6.66,4.28,11.46,4.28,8.63-1.43,11.48-4.27Z"/>
            <path class="cls-3"
                  d="M402.18,60.72h11.09a18.74,18.74,0,0,1,17.46,11.92l10.13,26,14.66-37.88h23.89l-27.28,65.16H429.46Z"/>
            <path class="cls-3"
                  d="M487.42,48.51a11.94,11.94,0,0,1-3.67-9,12,12,0,0,1,3.67-8.89,13.2,13.2,0,0,1,18.12,0,11.88,11.88,0,0,1,3.73,8.89,11.88,11.88,0,0,1-3.73,8.89,13.3,13.3,0,0,1-18.12.07Zm-2.85,12.21h23.88v65.16H484.57Z"/>
            <path class="cls-3"
                  d="M524,120.45q-6.74-7.47-6.72-19.69v-40h23.89V98.05q0,11.27,10.18,11.26a16.63,16.63,0,0,0,8.41-2.16,16.85,16.85,0,0,0,6.24-6.41v-40h23.9v65.16H566.82v-7a27.23,27.23,0,0,1-10.17,6.78,34.44,34.44,0,0,1-12.49,2.31Q530.72,127.92,524,120.45Z"/>
            <path class="cls-3"
                  d="M610.26,126.35a43.84,43.84,0,0,1-13.58-4.41V104.43a54.3,54.3,0,0,0,13.37,5.36,55.33,55.33,0,0,0,14.35,2.11,25.44,25.44,0,0,0,6.92-.68,2.7,2.7,0,0,0,2.18-2.72,3.1,3.1,0,0,0-1.43-2.64,19.44,19.44,0,0,0-5.12-2.17q-3.74-1.16-8.62-2.52a68.39,68.39,0,0,1-13-5,17.75,17.75,0,0,1-7-6.51,19.43,19.43,0,0,1-2.3-9.91q0-10.59,8.33-15.81t22.87-5.23A78,78,0,0,1,642,60.18q7.82,1.5,11.74,3.93V81.36A36,36,0,0,0,643,76.87a49.76,49.76,0,0,0-12.56-1.76,23,23,0,0,0-7.19.88c-1.71.58-2.56,1.6-2.56,3.05s.85,2.4,2.56,3.12a69.23,69.23,0,0,0,9.23,2.72q4.34,1.08,3.67,1A54.89,54.89,0,0,1,649.56,91a16.7,16.7,0,0,1,6.72,6.71,21.62,21.62,0,0,1,2,9.84q0,9.38-8.07,14.87t-23.42,5.5A91.24,91.24,0,0,1,610.26,126.35Z"/>
            <path class="cls-4"
                  d="M250.55,160.75v3.32H235v-2.63l8.4-8c2-2,2.41-3.21,2.41-4.38,0-1.93-1.33-3-3.92-3a6,6,0,0,0-5,2.2l-2.75-2.11c1.63-2.2,4.56-3.5,8-3.5,4.59,0,7.55,2.32,7.55,6.07,0,2-.58,3.92-3.5,6.67l-5.65,5.37Z"/>
            <path class="cls-4"
                  d="M268.18,157.58c0,3.71-2.68,6.79-8.36,6.79a13.2,13.2,0,0,1-7.94-2.44l1.66-3.05a10,10,0,0,0,6.22,2.08c2.81,0,4.49-1.24,4.49-3.2s-1.29-3.29-5.68-3.29h-5.13L254.53,143h12.41v3.3h-9.08l-.46,4.89h2C265.68,151.12,268.18,153.83,268.18,157.58Z"/>
            <path class="cls-4"
                  d="M294,159.18H283.42l-2.09,4.89h-4l9.51-21.15h3.85l9.53,21.15h-4.1Zm-1.28-3.08-4-9.23-4,9.23Z"/>
            <path class="cls-4" d="M321.67,142.94v21.15h-3.21l-11.67-14.31v14.29H302.9V142.92h3.2l11.65,14.31V142.94Z"/>
            <path class="cls-4"
                  d="M325.57,161.84l1.35-3.05a11.78,11.78,0,0,0,7,2.33c3.29,0,4.68-1.18,4.68-2.75,0-4.56-12.57-1.57-12.57-9.43,0-3.41,2.72-6.3,8.52-6.3a13.33,13.33,0,0,1,7.05,1.87l-1.23,3.05a11.82,11.82,0,0,0-5.85-1.63c-3.26,0-4.59,1.28-4.59,2.87,0,4.48,12.53,1.57,12.53,9.33,0,3.38-2.75,6.27-8.54,6.27C330.6,164.37,327.32,163.35,325.57,161.84Z"/>
            <path class="cls-4"
                  d="M354.66,142.94h9.24c6.85,0,11.54,4.23,11.54,10.57s-4.68,10.56-11.54,10.56h-9.24Zm9.06,17.81c4.71,0,7.76-2.87,7.76-7.24s-3.05-7.25-7.76-7.25h-5.13v14.49Z"/>
            <path class="cls-4" d="M395.45,160.78v3.29H379.6V142.92H395v3.29H383.49v5.49h10.23v3.2h-10.2v5.83Z"/>
            <path class="cls-4"
                  d="M439,142.94l-7,21.15h-4.16l-5.23-15.64-5.31,15.64h-4.19l-7-21.15h4.08L415.45,159l5.47-16.06h3.62l5.34,16.15,5.4-16.15Z"/>
            <path class="cls-4" d="M458.08,160.78v3.29H442.23V142.92h15.43v3.29h-11.5v5.49h10.2v3.2h-10.2v5.83Z"/>
            <path class="cls-4"
                  d="M481.24,158.33c0,3.63-2.84,5.77-8.28,5.77h-10.5V143h9.9c5.07,0,7.79,2.15,7.79,5.49a5.09,5.09,0,0,1-2.72,4.66A5.21,5.21,0,0,1,481.24,158.33ZM466.38,146v5.83h5.56c2.72,0,4.25-1,4.25-2.91s-1.53-2.92-4.25-2.92Zm10.9,11.92c0-2.11-1.6-3.05-4.57-3.05h-6.33V161h6.33c3,0,4.57-1,4.57-3.05Z"/>
            <path class="cls-4"
                  d="M182.28,92A72.41,72.41,0,0,0,164.8,65.81c12.66,25.52,12.48,48.82,12.48,48.84a27.94,27.94,0,0,1,10.37,4.77A80.44,80.44,0,0,0,182.28,92Z"/>
        </g>
    </g>
</svg>