<svg version="1.1" xmlns="http://www.w3.org/2000/svg" xmlns:xlink="http://www.w3.org/1999/xlink" x="0px" y="0px" width="280.6" height="153.1" viewBox="0 0 280.6 153.1" style="enable-background:new 0 0 280.6 153.1;" xml:space="preserve">
<style>
	.ult0{fill:#DB0812;}
	.ult1{clip-path:url(#SVGID_2_);}
	.ult2{fill:none;stroke:#000000;stroke-width:0.75;stroke-miterlimit:10;}
</style>
<path d="M32.9,62.6v28.8c0,7.7-3.8,12.5-9.9,12.5c-6,0-9.8-4.9-9.8-12.7V62.6H2.2v28.8c0,14.4,8,23.4,20.9,23.4
	c13.1,0,20.9-8.8,20.9-23.5V62.6H32.9z"></path>
<polygon points="59.5,103.1 59.5,62.6 48.4,62.6 48.4,114 84.3,114.1 84.3,103.2 "></polygon>
<polygon points="73.1,62.6 73.1,73.6 87.6,73.6 87.6,114 98.7,114 98.7,73.6 113.1,73.6 113.1,62.6 "></polygon>
<rect x="116.4" y="62.6" width="11.1" height="51.4"></rect>
<path d="M169.3,62.6L159,84.8c-1,2.3-2.2,4.1-2.9,6.2c-0.7-2-1.9-3.9-3-6.2l-10.6-22.1h-10.5V114h10.9V95c0-1.5,0-4.1-0.1-6.4
	c0-0.7,0-1.4,0-2c0.8,1.9,1.7,4.1,2.5,5.9l10.7,21.4l10.7-21.4c0.8-1.8,1.8-4,2.5-5.9c0,0.6,0,1.3,0,2c0,2.3-0.1,4.9-0.1,6.4v19
	h11.1V62.6H169.3z"></path>
<path class="ult0" d="M215.2,62.6v28.8c0,7.7-3.8,12.5-9.9,12.5c-6,0-9.8-4.9-9.8-12.7V62.6h-11.1v28.8c0,14.4,8,23.4,20.9,23.4
	c13.1,0,21-8.8,21-23.5V62.6H215.2z"></path>
<path d="M268.1,62.6l-10.3,22.1c-1,2.3-2.2,4.1-2.9,6.2c-0.8-2-1.9-3.9-3-6.2l-10.6-22.1h-10.5V114h10.9V95c0-1.5,0-4.1-0.1-6.4
	c0-0.7,0-1.4,0-2c0.8,1.9,1.7,4.1,2.5,5.9l10.7,21.4l10.7-21.4c0.8-1.8,1.8-4,2.5-5.9c0,0.6,0,1.3,0,2c0,2.3-0.1,4.9-0.1,6.4v19
	h11.1V62.6H268.1z"></path>
<path d="M16.1,151.5l-1.8-5.2H5.9l-1.8,5.2H1.8L8.9,131h2.5l7.1,20.5H16.1z M11.4,137.5c-0.5-1.3-1.1-3.2-1.3-4
	c-0.2,0.8-0.8,2.7-1.3,4.1l-2.3,6.7h7.1L11.4,137.5z"></path>
<path d="M26.3,151.5h-5V131h5.4c5.4,0,9.3,3.1,9.3,10.1C36.1,148.5,31.8,151.5,26.3,151.5 M26.5,133.1h-3v16.3h3
	c4.4,0,7.2-2.3,7.2-8.2C33.8,135.9,31.3,133.1,26.5,133.1"></path>
<path d="M46.5,151.5h-2.5L37,131h2.4l4.6,14c0.4,1.2,1.1,3.3,1.3,4c0.2-0.7,0.9-2.9,1.3-4.1l4.6-14h2.3L46.5,151.5z"></path>
<polygon points="56.2,151.5 56.2,131 68.6,131 68.6,133.1 58.5,133.1 58.5,139.5 64.4,139.5 64.4,141.6 58.5,141.6 58.5,149.4
	69.1,149.4 69.1,151.5 "></polygon>
<path d="M81.6,142.6l4.5,8.9h-2.6l-4.4-8.7h-4.9v8.7H72V131h8.1c3.6,0,6.4,1.8,6.4,5.8C86.5,140,84.6,142,81.6,142.6 M80,133.1h-5.7
	v7.6h5.4c3,0,4.5-1.3,4.5-3.8C84.2,134.4,82.7,133.1,80,133.1"></path>
<polygon points="96,133.1 96,151.5 93.8,151.5 93.8,133.1 87.7,133.1 87.7,131 102.1,131 102.1,133.1 "></polygon>
<rect x="104.9" y="131" width="2.3" height="20.5"></rect>
<path d="M117.1,151.8c-2.8,0-5.3-1.2-6.9-2.8l1.5-1.7c1.6,1.5,3.3,2.5,5.4,2.5c2.7,0,4.4-1.3,4.4-3.5c0-1.9-1.1-3-4.9-4.3
	c-4.4-1.6-5.9-3-5.9-6c0-3.3,2.6-5.2,6.4-5.2c2.8,0,4.5,0.8,6.2,2.2l-1.5,1.8c-1.5-1.2-2.9-1.9-4.9-1.9c-2.8,0-4,1.4-4,3
	c0,1.7,0.8,2.7,4.9,4.1c4.5,1.6,5.9,3.2,5.9,6.2C123.9,149.3,121.3,151.8,117.1,151.8"></path>
<rect x="127.3" y="131" width="2.3" height="20.5"></rect>
<path d="M146.3,151.5l-9-14c-0.4-0.7-1.2-2.1-1.5-2.6v1.4v15.2h-2.2V131h2.2l8.9,14.3c0.4,0.7,1.2,2,1.5,2.6v-1.4V131h2.2v20.5
	H146.3z"></path>
<path d="M159.7,151.8c-5,0-8.3-4.5-8.3-10.5c0-6.1,3.4-10.6,8.4-10.6c2.8,0,4.9,1.1,6.5,3.3l-1.8,1.4c-1.3-1.8-2.5-2.6-4.8-2.6
	c-3.5,0-6,3.5-6,8.5c0,5,2.6,8.5,6.1,8.5c3.4,0,5.3-2.1,5.3-6.1v-0.2h-3.7v-2.1h5.9v2C167.3,149,164.1,151.8,159.7,151.8"></path>
<polygon class="ult0" points="177.5,142.4 177.5,148.4 175.4,148.4 175.4,142.4 169.6,142.4 169.6,140.4 175.4,140.4 175.4,134.5
	177.5,134.5 177.5,140.4 183.3,140.4 183.3,142.4 "></polygon>
<g>
	<defs>
		<path id="SVGID_1_" d="M184.6,58.9h11.1V47.7h-11.1V58.9z M215.1,58.9h11.1V47.7h-11.1V58.9z M185.1,24.2v19.2h10.1V24.1
			c0-8.1,4-13,10.4-13c6.4,0,10.3,5.1,10.3,13.2v19.2H226V24.1c0-14.7-8.2-22.9-20.4-22.9C192.8,1.2,185.1,9.6,185.1,24.2"></path>
	</defs>
	<clipPath id="SVGID_2_">
		<use xlink:href="#SVGID_1_" style="overflow:visible;"></use>
	</clipPath>
	<g class="ult1">
		<line class="ult2" x1="101.1" y1="62.6" x2="226.5" y2="-62.8"></line>
		<line class="ult2" x1="103.1" y1="64.5" x2="228.5" y2="-60.9"></line>
		<line class="ult2" x1="105" y1="66.5" x2="230.4" y2="-58.9"></line>
		<line class="ult2" x1="106.9" y1="68.4" x2="232.3" y2="-57"></line>
		<line class="ult2" x1="108.9" y1="70.4" x2="234.3" y2="-55"></line>
		<line class="ult2" x1="110.8" y1="72.3" x2="236.2" y2="-53.1"></line>
		<line class="ult2" x1="112.8" y1="74.3" x2="238.2" y2="-51.1"></line>
		<line class="ult2" x1="114.7" y1="76.2" x2="240.1" y2="-49.2"></line>
		<line class="ult2" x1="116.7" y1="78.1" x2="242.1" y2="-47.2"></line>
		<line class="ult2" x1="118.6" y1="80.1" x2="244" y2="-45.3"></line>
		<line class="ult2" x1="120.6" y1="82" x2="246" y2="-43.4"></line>
		<line class="ult2" x1="122.5" y1="84" x2="247.9" y2="-41.4"></line>
		<line class="ult2" x1="124.4" y1="85.9" x2="249.8" y2="-39.5"></line>
		<line class="ult2" x1="126.4" y1="87.9" x2="251.8" y2="-37.5"></line>
		<line class="ult2" x1="128.3" y1="89.8" x2="253.7" y2="-35.6"></line>
		<line class="ult2" x1="130.3" y1="91.8" x2="255.7" y2="-33.6"></line>
		<line class="ult2" x1="132.2" y1="93.7" x2="257.6" y2="-31.7"></line>
		<line class="ult2" x1="134.2" y1="95.6" x2="259.6" y2="-29.7"></line>
		<line class="ult2" x1="136.1" y1="97.6" x2="261.5" y2="-27.8"></line>
		<line class="ult2" x1="138.1" y1="99.5" x2="263.5" y2="-25.9"></line>
		<line class="ult2" x1="140" y1="101.5" x2="265.4" y2="-23.9"></line>
		<line class="ult2" x1="141.9" y1="103.4" x2="267.3" y2="-22"></line>
		<line class="ult2" x1="143.9" y1="105.4" x2="269.3" y2="-20"></line>
		<line class="ult2" x1="145.8" y1="107.3" x2="271.2" y2="-18.1"></line>
		<line class="ult2" x1="147.8" y1="109.3" x2="273.2" y2="-16.1"></line>
		<line class="ult2" x1="149.7" y1="111.2" x2="275.1" y2="-14.2"></line>
		<line class="ult2" x1="151.7" y1="113.2" x2="277.1" y2="-12.2"></line>
		<line class="ult2" x1="153.6" y1="115.1" x2="279" y2="-10.3"></line>
		<line class="ult2" x1="155.6" y1="117" x2="281" y2="-8.4"></line>
		<line class="ult2" x1="157.5" y1="119" x2="282.9" y2="-6.4"></line>
		<line class="ult2" x1="159.4" y1="120.9" x2="284.8" y2="-4.5"></line>
		<line class="ult2" x1="161.4" y1="122.9" x2="286.8" y2="-2.5"></line>
		<line class="ult2" x1="163.3" y1="124.8" x2="288.7" y2="-0.6"></line>
		<line class="ult2" x1="165.3" y1="126.8" x2="290.7" y2="1.4"></line>
		<line class="ult2" x1="167.2" y1="128.7" x2="292.6" y2="3.3"></line>
		<line class="ult2" x1="169.2" y1="130.7" x2="294.6" y2="5.3"></line>
		<line class="ult2" x1="171.1" y1="132.6" x2="296.5" y2="7.2"></line>
		<line class="ult2" x1="173.1" y1="134.5" x2="298.5" y2="9.1"></line>
		<line class="ult2" x1="175" y1="136.5" x2="300.4" y2="11.1"></line>
	</g>
</g>
<path d="M190.7,151.5h-5V131h5.4c5.4,0,9.3,3.1,9.3,10.1C200.4,148.5,196.1,151.5,190.7,151.5 M190.9,133.1h-3v16.4h3
	c4.4,0,7.2-2.3,7.2-8.2C198.1,135.9,195.6,133.1,190.9,133.1"></path>
<rect x="203.6" y="131" width="2.3" height="20.5"></rect>
<path d="M217.4,151.8c-5,0-8.3-4.5-8.3-10.5c0-6.1,3.4-10.6,8.4-10.6c2.8,0,4.9,1.1,6.5,3.3l-1.8,1.4c-1.3-1.8-2.5-2.6-4.8-2.6
	c-3.5,0-6,3.5-6,8.5c0,5,2.6,8.5,6.1,8.5c3.4,0,5.3-2.1,5.3-6.1v-0.2h-3.7v-2.1h5.9v2C225,149,221.7,151.8,217.4,151.8"></path>
<rect x="228" y="131" width="2.3" height="20.5"></rect>
<polygon points="241.4,133.1 241.4,151.5 239.1,151.5 239.1,133.1 233.1,133.1 233.1,131 247.4,131 247.4,133.1 "></polygon>
<path d="M261.1,151.5l-1.8-5.2h-8.5l-1.8,5.2h-2.3l7.1-20.5h2.5l7.1,20.5H261.1z M256.4,137.5c-0.5-1.3-1.1-3.2-1.3-4
	c-0.2,0.8-0.8,2.7-1.3,4.1l-2.3,6.7h7.1L256.4,137.5z"></path>
<polygon points="266.3,151.5 266.3,131 268.5,131 268.5,149.4 278.7,149.4 278.7,151.5 "></polygon>
</svg>
